P2
90 40
255
39 61 45 37 23 33 31 39 33 45 35 33 25 39 43 37 41 41 35 31 89 95 111 113 103 85 69 83 71 83 45 63 59 35 73 63 85 63 51 47 33 35 49 57 63 65 55 57 61 41 25 29 35 35 25 35 39 43 25 41 61 67 59 69 109 141 153 165 175 175 177 183 191 193 191 189 199 193 185 187 195 201 197 191 199 195 189 181 179 179 41 63 43 35 19 33 33 41 33 47 33 27 37 61 49 23 27 39 37 31 97 85 111 107 103 77 73 73 77 61 45 55 61 53 59 61 79 69 61 53 43 35 41 55 75 57 63 53 47 23 31 29 35 33 35 37 37 39 45 51 69 79 67 89 125 149 171 167 177 177 177 183 189 193 193 193 195 195 197 199 201 199 193 189 193 183 179 183 187 189 47 45 37 23 21 29 33 31 37 43 39 27 35 47 49 37 31 35 37 31 89 71 91 91 89 69 67 73 65 59 65 79 79 65 55 55 65 73 73 57 43 43 53 65 79 55 51 53 49 29 27 27 29 33 37 35 35 39 49 59 57 75 77 101 135 155 175 173 181 179 179 183 187 193 195 195 199 197 195 195 193 193 189 187 195 187 183 187 191 193 49 41 37 33 37 35 35 33 33 33 37 39 53 55 45 35 37 45 45 31 115 89 97 99 95 77 71 77 79 67 79 73 67 67 57 73 59 73 77 59 51 59 67 63 69 63 61 59 35 27 27 31 27 37 39 35 35 47 57 65 55 75 93 121 147 161 179 181 187 187 187 187 187 193 197 201 203 201 197 193 189 187 189 189 193 187 183 185 191 191 49 39 31 31 27 23 27 37 37 31 35 47 57 57 47 35 37 45 41 29 127 95 97 99 93 77 67 75 95 73 81 57 47 63 59 89 71 73 67 59 61 71 69 55 65 73 61 47 17 31 31 27 33 37 39 37 45 59 65 63 71 83 109 137 153 167 181 183 189 193 195 193 193 195 199 203 201 201 197 193 187 187 189 193 191 189 185 185 189 193 47 41 27 25 35 31 29 33 33 35 49 63 63 67 67 59 53 55 55 49 115 89 93 99 93 89 75 81 79 65 81 63 57 71 61 83 81 75 65 59 67 73 67 53 75 57 29 27 19 41 31 21 39 37 35 41 57 71 71 61 91 91 115 143 157 173 183 183 187 191 197 199 197 195 197 199 197 197 197 195 191 191 193 197 195 193 191 189 193 197 47 41 27 27 27 31 35 39 43 49 55 57 85 89 85 75 73 75 75 73 115 97 99 109 101 103 89 87 67 63 81 73 71 81 73 81 81 81 71 65 65 69 65 55 61 31 13 23 25 31 31 33 41 35 37 49 67 79 77 71 99 87 117 145 159 177 183 185 187 189 193 197 197 197 195 195 195 197 199 199 197 195 195 195 193 193 191 189 191 197 41 33 19 25 39 37 29 29 41 67 93 107 97 87 69 59 59 61 53 45 109 101 101 107 95 105 85 79 71 77 81 77 75 79 83 87 85 87 77 61 59 67 59 37 27 21 27 25 23 23 37 41 37 37 45 63 77 83 91 99 99 83 123 153 163 179 185 187 189 191 191 195 199 199 199 197 199 197 197 197 197 195 193 189 189 190 188 186 189 195 33 33 21 29 31 45 69 93 101 91 87 87 77 67 53 47 49 49 39 27 107 105 107 111 97 113 95 87 75 89 87 83 77 75 85 83 93 93 75 51 57 75 53 11 11 27 41 19 27 41 53 25 35 39 55 75 81 85 103 127 101 85 131 163 169 183 185 189 195 193 193 195 199 203 203 201 205 201 199 197 197 195 191 187 191 194 192 188 191 197 27 41 33 39 79 73 75 79 67 45 45 59 53 59 65 69 71 69 67 61 123 113 109 111 123 129 113 79 95 77 69 67 73 77 77 85 87 81 69 57 55 49 33 15 31 35 37 33 29 29 29 27 39 37 71 75 85 123 127 113 105 107 143 181 183 179 187 197 191 191 193 197 205 207 201 197 197 195 195 195 197 197 195 193 199 194 188 188 193 197 47 51 65 79 75 61 49 51 61 75 89 101 109 123 123 121 95 105 97 91 137 121 117 119 111 101 101 103 95 81 73 65 67 75 79 81 79 77 69 53 37 31 27 23 27 33 33 31 31 33 35 33 45 45 63 89 107 113 111 127 135 149 169 183 187 195 197 191 193 191 193 197 203 205 201 197 197 199 201 201 199 199 199 201 203 198 192 192 197 199 73 91 93 83 89 109 125 127 131 137 127 111 109 107 89 77 47 51 47 45 123 119 111 103 93 87 93 103 95 91 81 73 75 79 83 79 81 71 57 41 29 23 27 35 35 39 41 37 33 35 35 35 43 63 71 103 133 117 113 134 154 174 182 180 191 201 195 187 195 192 192 194 200 201 199 196 192 196 201 201 197 196 198 203 203 198 196 194 196 198 77 99 119 129 115 123 117 95 81 85 91 91 89 89 89 97 81 85 79 75 123 113 105 109 113 103 95 97 95 93 87 87 87 81 83 79 81 57 33 29 31 31 33 37 39 43 43 39 33 31 31 31 45 77 81 105 133 141 152 148 157 173 177 180 192 193 187 197 198 196 195 195 196 198 199 196 192 196 201 201 199 198 200 205 201 198 196 196 197 199 129 129 115 103 121 97 87 101 121 125 119 111 133 131 137 145 133 121 105 95 123 107 103 121 133 107 89 99 97 95 83 91 93 79 83 79 63 39 19 21 31 35 35 35 31 35 39 37 31 29 31 33 55 79 89 111 127 154 186 161 159 179 185 184 194 193 191 202 198 197 195 193 195 197 197 196 198 198 201 203 205 206 206 207 201 200 198 198 201 201 101 87 85 93 91 99 121 149 157 147 137 137 145 127 115 101 83 67 61 51 85 113 115 103 109 113 103 101 107 107 89 99 99 83 89 75 41 33 27 27 31 35 37 41 39 41 41 41 35 31 35 39 65 77 107 139 145 158 172 149 169 193 201 186 188 198 199 194 198 199 195 193 195 195 197 196 198 196 199 201 205 206 206 205 203 202 202 202 203 203 77 67 91 125 139 163 173 157 127 111 111 115 85 67 57 39 35 35 47 45 69 119 125 93 93 107 107 107 109 127 109 111 111 95 91 53 31 33 37 35 33 37 39 39 47 45 43 41 33 31 39 51 63 83 125 151 159 162 154 155 183 195 203 195 186 196 201 190 198 197 197 193 193 195 195 196 194 194 199 199 201 202 204 205 207 206 206 204 203 203 101 125 151 175 153 143 123 107 97 91 75 57 59 53 59 45 49 49 63 53 85 101 101 97 91 67 65 103 101 133 123 121 117 103 85 25 29 33 33 31 33 39 35 27 41 37 33 31 29 31 43 59 59 91 125 125 147 170 168 197 199 187 193 202 194 192 201 202 198 197 197 195 193 195 195 196 194 198 205 205 201 200 204 209 207 206 206 202 201 201 165 155 141 133 101 85 73 71 59 45 47 61 51 53 65 47 47 39 45 27 105 95 93 91 79 73 77 79 85 113 117 119 135 103 47 27 47 33 31 29 21 31 45 41 39 39 29 25 37 35 37 55 65 89 99 129 149 182 182 187 203 193 191 200 206 203 197 194 184 185 201 195 187 195 193 190 200 202 203 209 213 208 206 217 211 210 208 206 207 207 123 109 99 83 63 57 47 41 45 53 55 53 51 31 23 27 21 19 21 19 93 79 73 81 87 93 95 89 79 99 111 119 119 77 33 25 35 25 27 29 25 35 43 35 39 39 27 23 31 29 33 53 61 59 85 131 171 176 186 210 187 191 198 204 206 203 201 200 184 184 199 191 182 190 191 195 192 200 203 207 212 208 206 213 213 212 212 212 211 211 87 77 63 43 39 43 43 41 35 29 25 19 27 17 19 29 29 29 29 23 83 85 97 103 95 91 85 71 111 119 129 129 103 59 31 31 27 27 31 31 31 35 41 33 39 35 27 25 35 37 47 67 69 69 79 89 143 163 181 176 202 202 196 190 191 195 199 201 188 182 194 186 178 187 191 197 188 200 206 206 212 210 206 207 209 208 210 210 209 209 55 55 45 27 39 43 45 37 31 33 37 43 27 25 31 33 33 35 31 19 87 87 93 91 85 97 111 113 129 125 125 109 65 33 29 27 27 33 37 33 29 33 39 35 43 33 29 33 41 47 55 73 65 83 79 63 105 155 185 183 185 189 193 193 203 209 205 193 199 183 187 183 179 189 193 199 197 209 211 207 213 215 209 205 217 217 217 215 215 215 35 37 43 37 35 49 61 65 59 53 49 43 41 37 35 29 21 27 27 13 117 109 109 117 125 141 147 139 117 107 95 69 33 29 39 31 25 35 37 27 25 33 41 43 47 31 29 37 43 45 51 59 67 79 75 83 83 107 135 177 177 187 193 195 201 205 203 195 203 181 181 181 183 195 195 199 201 213 211 205 211 215 211 211 213 213 211 209 209 211 31 43 57 59 61 57 47 33 25 27 35 37 27 23 21 15 13 21 27 17 137 135 147 157 147 133 119 103 99 85 69 43 23 37 49 37 21 33 31 19 25 37 45 49 45 27 27 43 47 47 53 59 83 83 73 93 83 83 81 109 141 161 181 189 191 191 193 195 197 171 173 179 187 197 197 203 201 209 205 203 207 211 211 217 207 207 205 203 203 205 49 59 59 47 25 27 27 25 23 21 15 9 15 13 15 17 13 21 27 19 123 113 117 117 99 85 89 95 69 51 35 25 25 37 37 27 23 33 25 19 35 47 45 45 39 23 31 49 49 49 61 69 79 91 85 83 95 107 99 93 75 93 125 157 173 179 181 185 179 159 167 179 185 195 199 209 203 207 203 203 207 203 203 213 209 211 211 211 211 213 51 45 31 11 21 19 15 11 15 25 33 35 29 23 23 25 21 21 23 21 119 93 87 97 93 85 87 89 45 29 21 27 39 43 37 31 27 35 25 21 45 59 47 37 41 25 37 53 45 41 57 69 65 89 99 75 83 87 109 113 99 79 65 77 107 139 163 179 163 149 163 177 183 191 197 213 211 211 205 207 209 199 197 207 197 199 203 205 205 205 33 27 29 25 19 25 29 29 29 31 29 27 45 31 27 29 19 15 21 23 97 93 105 85 83 81 87 53 31 27 39 35 47 37 39 31 21 27 25 27 53 57 35 43 35 33 39 65 51 39 77 81 83 83 95 71 71 75 95 91 97 93 99 87 87 77 97 91 123 127 157 169 181 195 191 205 215 213 209 209 207 205 201 199 199 207 207 203 205 213 29 27 25 27 19 21 37 37 41 29 45 37 45 37 25 39 27 27 19 25 95 87 91 83 95 83 61 17 31 33 43 35 45 37 39 31 29 31 33 33 51 55 35 41 31 39 61 51 53 65 61 79 75 91 69 79 81 77 93 77 79 81 101 105 107 87 87 71 77 79 103 113 129 159 167 185 187 191 195 199 199 203 207 209 201 209 209 205 201 201 27 37 41 25 27 27 39 63 41 43 35 33 45 37 29 37 19 27 21 17 99 87 79 77 95 79 45 13 31 39 47 35 41 37 41 29 29 27 37 37 43 47 35 35 31 49 67 53 69 79 63 85 83 93 63 79 81 85 69 67 85 79 95 99 101 89 87 77 85 85 87 79 79 95 97 105 125 133 143 151 157 165 177 185 183 189 193 195 193 191 23 41 47 21 41 31 57 73 41 53 35 35 51 41 39 41 17 31 29 13 93 91 81 77 83 59 33 27 33 45 49 39 37 45 43 33 29 27 41 41 39 45 39 35 37 57 51 71 85 69 79 87 91 77 79 65 75 91 45 77 89 79 87 85 77 79 87 95 101 105 107 97 91 97 95 93 83 89 95 101 105 113 121 127 143 143 149 159 161 161 35 45 41 31 59 39 81 57 41 49 49 39 59 39 39 49 19 31 31 15 91 99 93 93 83 53 25 29 35 49 49 41 39 51 47 39 35 35 49 47 41 49 45 41 45 51 55 77 73 67 89 79 73 65 87 57 71 75 47 83 71 69 87 83 67 73 79 93 83 95 103 105 109 113 117 113 99 97 95 95 93 95 93 93 101 93 91 99 101 99 53 51 39 55 61 53 89 47 33 51 53 43 59 31 31 51 21 23 27 19 91 93 83 83 67 47 25 29 41 49 45 43 41 53 47 43 37 41 51 43 43 49 39 41 49 47 77 65 51 79 79 65 57 77 79 65 67 41 61 71 65 69 89 81 63 83 81 93 85 93 91 97 97 95 103 101 113 109 107 105 103 105 101 99 113 103 97 101 103 101 59 49 41 73 55 69 75 51 29 61 47 43 57 29 25 49 27 23 25 25 101 99 91 89 53 39 25 27 47 49 41 45 41 53 43 41 33 45 47 33 43 49 35 45 47 59 83 61 55 79 67 61 59 85 71 65 51 37 73 73 79 71 79 67 55 97 89 95 97 99 91 101 99 87 99 101 97 99 101 101 101 101 101 101 99 95 93 91 93 95 45 45 57 71 63 75 57 47 41 57 41 41 51 35 27 43 29 29 23 27 139 147 153 147 87 61 43 39 51 49 37 47 41 53 39 39 31 47 45 31 47 53 39 53 41 75 65 71 79 63 67 69 67 75 67 55 29 59 79 97 83 67 67 51 53 105 89 85 97 97 85 99 97 77 89 91 87 91 95 93 89 85 87 89 93 95 95 93 89 95 33 45 71 65 77 73 49 31 59 45 45 43 41 37 27 35 25 29 19 21 0 0 0 0 0 0 0 0 0 0 0 0 0 0 0 0 0 0 0 0 0 0 0 0 0 0 0 0 0 0 0 0 0 0 0 0 0 0 0 0 0 0 0 0 0 0 0 0 0 0 0 0 0 0 0 0 0 0 0 0 0 0 0 0 0 0 0 0 0 0 0 0 0 0 0 0 0 0 0 0 0 0 0 0 0 0 0 0 0 0 0 0 0 0 0 0 0 0 0 0 0 0 0 0 0 0 0 0 0 0 0 0 0 0 0 0 0 0 0 0 0 0 0 0 0 0 0 0 0 0 0 0 0 0 0 0 0 0 0 0 0 0 0 0 0 0 0 0 0 0 0 0 0 0 0 0 0 0 0 0 0 0 0 0 0 0 0 0 0 0 0 0 0 0 0 0 0 0 0 0 0 0 0 0 0 0 0 0 0 0 0 0 0 0 0 0 0 0 0 0 0 0 0 0 0 0 0 0 0 0 0 0 0 0 0 0 0 0 0 0 0 0 0 0 0 0 0 0 0 0 0 0 0 0 0 0 0 0 0 0 0 0 0 0 0 0 0 0 0 0 0 0 0 0 0 0 0 0 0 0 0 0 0 0 0 0 0 0 0 0 0 0 0 0 0 0 0 0 0 0 0 0 0 0 0 0 0 0 0 0 0 0 0 0 0 0 0 0 0 0 0 0 0 0 0 0 0 0 0 0 0 0 0 0 0 0 0 0 0 0 0 0 0 0 0 0 0 0 0 0 0 0 0 0 0 0 0 0 0 0 0 0 0 0 0 0 0 0 0 0 0 0 0 0 0 0 0 0 0 0 0 0 0 0 0 0 0 0 0 0 0 0 0 0 0 0 0 0 0 0 0 0 0 0 0 0 0 0 0 0 0 0 0 0 0 0 0 0 0 0 0 0 0 0 0 0 0 0 0 0 0 0 0 0 0 0 0 0 0 0 0 0 0 0 0 0 0 0 0 0 0 0 0 0 0 0 0 0 0 0 0 0 0 0 0 0 0 0 0 0 0 0 0 0 0 0 0 0 0 0 0 0 0 0 0 0 0 0 0 0 0 0 0 0 0 0 0 0 0 0 0 0 0 0 0 0 0 0 0 0 0 0 0 0 0 0 0 0 0 0 0 0 0 0 0 0 0 0 0 0 0 0 0 0 0 0 0 0 0 0 0 0 0 0 0 0 0 0 0 0 0 0 0 0 0 0 0 0 0 0 0 0 0 0 0 0 0 0 0 0 0 0 0 0 0 0 0 0 0 0 0 0 0 0 0 0 0 0 0 0 0 0 0 0 0 0 0 0 0 0 0 0 0 0 0 0 0 0 0 0 0 0 0 0 0 0 0 0 0 0 0 0 0 0 0 0 0 0 0 0 